# AST/ASF file generated using VICON BodyLanguage
# -----------------------------------------------
:version 1.10
:name VICON
:units
  mass 1.0
  length 0.45
  angle deg
:documentation
   .ast/.asf automatically generated from VICON data using
   VICON BodyBuilder and BodyLanguage model FoxedUp or BRILLIANT.MOD
:root
   order TX TY TZ RX RY RZ
   axis XYZ
   position 0 0 0  
   orientation 0 0 0 
:bonedata
  begin
     id 1 
     name lhipjoint
     direction 0.611823 -0.767273 0.19226 
     length 2.47422 
     axis 0 0 0  XYZ
  end
  begin
     id 2 
     name lfemur
     direction 0.34202 -0.939693 0  
     length 7.40835  
     axis 0 0 20  XYZ
    dof rx ry rz
    limits (-160.0 20.0)
           (-70.0 70.0)
           (-60.0 70.0)
  end
  begin
     id 3 
     name ltibia
     direction 0.34202 -0.939693 0   
     length 8.03679   
     axis 0 0 20   XYZ
    dof rx
    limits (-10.0 170.0)
  end
  begin
     id 4 
     name lfoot
     direction 0.0883598 -0.242766 0.966052   
     length 2.06694   
     axis -90 7.62852e-016 20   XYZ
    dof rx rz
    limits (-45.0 90.0)
           (-70.0 20.0)
  end
  begin
     id 5 
     name ltoes
     direction 1.53617e-011 -4.21699e-011 1   
     length 1.03711   
     axis -90 7.62852e-016 20   XYZ
    dof rx
    limits (-90.0 20.0)
  end
  begin
     id 6 
     name rhipjoint
     direction -0.590066 -0.783143 0.196236   
     length 2.42408  
     axis 0 0 0  XYZ 
  end
  begin
     id 7 
     name rfemur
     direction -0.34202 -0.939693 0   
     length 7.88987   
     axis 0 0 -20   XYZ
    dof rx ry rz
    limits (-160.0 20.0)
           (-70.0 70.0)
           (-70.0 60.0)
  end
  begin
     id 8 
     name rtibia
     direction -0.34202 -0.939693 0   
     length 7.87584   
     axis 0 0 -20   XYZ
    dof rx
    limits (-10.0 170.0)
 end
 begin
     id 9 
     name rfoot
     direction -0.130476 -0.358481 0.924374   
     length 2.21745  
     axis -90 -7.62852e-016 -20   XYZ
    dof rx rz
    limits (-45.0 90.0)
           (-20.0 70.0)
  end
  begin
     id 10 
     name rtoes
     direction 8.20695e-005 8.89091e-005 1   
     length 1.09536   
     axis -90 -7.62852e-016 -20   XYZ
    dof rx
    limits (-90.0 20.0)
  end
  begin
     id 11 
     name lowerback
     direction 0.00981224 0.999875 -0.0124197   
     length 1.94808   
     axis 0 0 0   XYZ
    dof rx ry rz
    limits (-20.0 45.0)
           (-30.0 30.0)
           (-30.0 30.0)
  end
  begin
     id 12 
     name upperback
     direction 0.038911 0.999194 0.00981686   
     length 1.94415   
     axis 0 0 0   XYZ
    dof rx ry rz
    limits (-20.0 45.0)
           (-30.0 30.0)
           (-30.0 30.0)
  end
  begin
     id 13 
     name thorax
     direction 0.0330692 0.999334 0.0154389   
     length 1.94117   
     axis 0 0 0   XYZ
    dof rx ry rz
    limits (-20.0 45.0)
           (-30.0 30.0)
           (-30.0 30.0)
  end
  begin
     id 14 
     name lowerneck
     direction -0.0374305 0.99415 0.10132   
     length 1.87291   
     axis 0 0 0   XYZ
    dof rx ry rz
    limits (-20.0 45.0)
           (-30.0 30.0)
           (-30.0 30.0)
  end
  begin
     id 15 
     name upperneck
     direction 0.0120692 0.985979 -0.166431   
     length 1.89248   
     axis 0 0 0   XYZ
    dof rx ry rz
    limits (-20.0 45.0)
           (-30.0 30.0)
           (-30.0 30.0)
  end
  begin
     id 16
     name head
     direction 0.00629908 0.997708 -0.06737  
     length 1.90559  
     axis 0 0 0   XYZ
    dof rx ry rz
    limits (-20.0 45.0)
           (-30.0 30.0)
           (-30.0 30.0)
  end
  begin
     id 17 
     name lclavicle
     direction 0.961536 0.27308 -0.0295863  
     length 3.52757  
     axis 0 0 0   XYZ
    dof ry rz
    limits (-20.0 10.0)
           (0.0 20.0)
  end
  begin
     id 18 
     name lhumerus
     direction 1 -4.48969e-011 2.61153e-029   
     length 5.14845   
     axis 180 -30 -90   XYZ
    dof rx ry rz
    limits (-60.0 90.0)
           (-90.0 90.0)
           (-90.0 90.0)
  end
  begin
     id 19
     name lradius
     direction 1 -4.4896e-011 -3.37549e-027   
     length 3.43674   
     axis 180 -30 -90   XYZ
    dof rx
    limits (-10.0 170.0)
  end
  begin
     id 20
     name lwrist
     direction 1 -4.48969e-011 2.56952e-028   
     length 1.71837   
     axis -5.12785e-016 90 90   XYZ
    dof ry
    limits (-180.0 0.0)
 end
  begin
     id 21 
     name lhand
     direction 1 -4.49094e-011 5.13905e-028   
     length 0.588709   
     axis -3.27915e-016 90 90   XYZ
    dof rx rz
    limits (-90.0 90.0)
           (-45.0 45.0)
  end
  begin
     id 22 
     name lfingers
     direction 1 -4.48821e-011 1.02781e-027   
     length 0.474633   
     axis -6.5583e-016 90 90   XYZ
    dof rx
    limits (0.0 90.0)
  end
  begin
     id 23
     name lthumb
     direction 0.707107 -6.34922e-011 0.707107   
     length 0.68148   
     axis -90 45 2.85299e-015   XYZ
    dof rx rz
    limits (-45.0 45.0)
           (-45.0 45.0)
  end
  begin
     id 24 
     name rclavicle
     direction -0.940964 0.333844 -0.0559866   
     length 3.55948  
     axis 0 0 0   XYZ 
    dof ry rz
    limits (-10.0 20.0)
           (-20.0 0.0)
  end
  begin
     id 25 
     name rhumerus
     direction -1 -4.48973e-011 3.15259e-027  
     length 5.42185   
     axis 180 30 90   XYZ
    dof rx ry rz
    limits (-90.0 60.0)
           (-90.0 90.0)
           (-90.0 90.0)
  end
  begin
     id 26 
     name rradius
     direction -1 -4.48954e-011 -2.56271e-027   
     length 3.51317   
     axis 180 30 90   XYZ
    dof rx
    limits (-10.0 170.0)
  end
  begin
     id 27 
     name rwrist
     direction -1 -4.48943e-011 2.56952e-028   
     length 1.75658   
     axis -5.12785e-016 -90 -90   XYZ
    dof ry
    limits (-180.0 0.0)
  end
  begin
     id 28
     name rhand
     direction -1 -4.4912e-011 5.13905e-028   
     length 0.663187   
     axis -3.27915e-016 -90 -90   XYZ
    dof rx rz
    limits (-90.0 90.0)
           (-45.0 45.0)
  end
  begin
     id 29
     name rfingers
     direction -1 -4.48914e-011 1.02781e-027   
     length 0.534679   
     axis -6.5583e-016 -90 -90   XYZ
    dof rx
    limits (0.0 90.0)
  end
  begin
     id 30
     name rthumb
     direction -0.707107 -6.35033e-011 0.707107   
     length 0.767695   
     axis -90 -45 -2.85299e-015   XYZ
    dof rx rz
    limits (-45.0 45.0)
           (-45.0 45.0)
  end
:hierarchy
  begin
    root lhipjoint rhipjoint lowerback
    lhipjoint lfemur
    lfemur ltibia
    ltibia lfoot
    lfoot ltoes
    rhipjoint rfemur
    rfemur rtibia
    rtibia rfoot
    rfoot rtoes
    lowerback upperback
    upperback thorax
    thorax lowerneck lclavicle rclavicle
    lowerneck upperneck
    upperneck head
    lclavicle lhumerus
    lhumerus lradius
    lradius lwrist
    lwrist lhand lthumb
    lhand lfingers
    rclavicle rhumerus
    rhumerus rradius
    rradius rwrist
    rwrist rhand rthumb
    rhand rfingers
  end

#!OML:ASF F:\VICON\USERDATA\INSTALL\Justin_a\Justin_a.ASF
:FULLY-SPECIFIED
:DEGREES
4058
root 13.4942 18.0189 11.2343 -0.0216184 57.7806 -3.32152
lowerback 1.00178 -0.0539513 1.56748
upperback 1.52336 -0.0550031 3.54988
thorax 1.00226 -0.0157686 2.76553
lowerneck -6.53632 7.5102 -0.607821
upperneck 37.0343 15.5371 -6.96259
head 14.4918 6.31439 -0.426147
rclavicle 4.13472e-014 -3.97569e-015
rhumerus -42.332 -12.5558 -77.8576
rradius 31.7447
rwrist -8.00585
rhand -27.9728 12.2347
rfingers 7.12502
rthumb -1.35969 -17.7407
lclavicle 4.13472e-014 -3.97569e-015
lhumerus -31.8379 6.94004 85.7388
lradius 43.1479
lwrist 9.33181
lhand -17.1789 25.1701
lfingers 7.12502
lthumb 9.06269 54.9554
rfemur -27.2574 1.96808 27.1764
rtibia 36.4782
rfoot -11.7605 -7.02144
rtoes -9.35695
lfemur -23.5813 0.558381 -18.3305
ltibia 58.9085
lfoot -16.5236 -1.36443
ltoes -12.9102
4059
root 13.5387 18.0138 11.2684 0.415317 57.9627 -2.97339
lowerback 0.979223 -0.00100205 1.47195
upperback 1.57502 0.0117937 3.44885
thorax 1.06535 0.0164228 2.715
lowerneck -6.64347 7.92852 -0.615498
upperneck 37.0189 16.1853 -6.9333
head 14.5426 6.59495 -0.308947
rclavicle -3.12092e-014 -3.81667e-014
rhumerus -42.0773 -12.2656 -78.1701
rradius 32.0911
rwrist -8.28474
rhand -27.6902 12.6973
rfingers 7.12502
rthumb -1.08671 -17.2797
lclavicle -3.12092e-014 -3.81667e-014
lhumerus -31.7708 6.64636 85.9086
lradius 43.1933
lwrist 9.23224
lhand -17.122 25.2252
lfingers 7.12502
lthumb 9.11763 55.0081
rfemur -27.2724 1.92357 26.9967
rtibia 36.6018
rfoot -12.4066 -7.28023
rtoes -6.79838
lfemur -24.1787 0.276074 -18.5405
ltibia 58.1576
lfoot -17.2127 -0.189089
ltoes -14.4639
4060
root 13.5831 18.0241 11.3063 0.859909 58.112 -2.54061
lowerback 1.03545 0.0702164 1.29115
upperback 1.59008 0.106959 3.38273
thorax 1.04548 0.0618722 2.74825
lowerneck -6.73001 8.35877 -0.819087
upperneck 37.0903 16.859 -6.76017
head 14.5943 6.8777 -0.0993213
rclavicle 7.95139e-016 1.82882e-014
rhumerus -42.0294 -11.8592 -78.4094
rradius 32.6323
rwrist -8.56242
rhand -27.7162 12.6501
rfingers 7.12502
rthumb -1.11184 -17.3267
lclavicle 7.95139e-016 1.82882e-014
lhumerus -31.8784 6.40079 86.1525
lradius 43.4061
lwrist 9.32171
lhand -17.3328 25.6069
lfingers 7.12502
lthumb 8.9142 55.3986
rfemur -27.2192 2.01455 26.7394
rtibia 36.7787
rfoot -12.6604 -7.49408
rtoes -6.10346
lfemur -24.6079 -0.00566348 -18.7592
ltibia 57.2879
lfoot -17.7581 0.218505
ltoes -14.153
4061
root 13.6229 18.028 11.3459 0.794087 58.2801 -2.71415
lowerback 1.04762 0.198788 1.463
upperback 1.61773 0.278891 3.32271
thorax 1.06144 0.150112 2.58948
lowerneck -6.52911 8.68007 -0.697815
upperneck 36.877 17.3209 -6.8405
head 14.4954 7.10788 -0.0962343
rclavicle -6.54995e-014 2.38542e-014
rhumerus -42.0452 -11.3851 -78.8429
rradius 33.2368
rwrist -9.13793
rhand -27.7716 12.6401
rfingers 7.12502
rthumb -1.1653 -17.3365
lclavicle -6.54995e-014 2.38542e-014
lhumerus -31.8797 6.08905 86.3015
lradius 43.3759
lwrist 9.16595
lhand -17.2311 25.3782
lfingers 7.12502
lthumb 9.01236 55.1657
rfemur -27.1761 2.18023 26.8488
rtibia 36.9525
rfoot -12.5789 -7.83508
rtoes -7.04073
lfemur -25.0979 -0.17669 -18.6199
ltibia 56.4021
lfoot -18.1393 0.944096
ltoes -15.2612
4062
root 13.6595 18.0193 11.3847 0.9613 58.5143 -2.58914
lowerback 1.13283 0.345277 1.45557
upperback 1.6168 0.476458 3.17358
thorax 1.00689 0.248993 2.4388
lowerneck -6.01284 8.873 -0.241887
upperneck 36.3018 17.584 -7.32801
head 14.2346 7.27926 -0.360356
rclavicle 1.03368e-014 2.54444e-014
rhumerus -42.1388 -11.2577 -79.1625
rradius 33.7725
rwrist -9.21154
rhand -27.6061 12.7379
rfingers 7.12502
rthumb -1.00547 -17.2394
lclavicle 1.03368e-014 2.54444e-014
lhumerus -31.9354 5.62492 86.3454
lradius 43.3625
lwrist 8.91734
lhand -16.8609 24.7916
lfingers 7.12502
lthumb 9.36956 54.5634
rfemur -27.1538 2.25305 26.7979
rtibia 37.1658
rfoot -12.7225 -8.0704
rtoes -4.07266
lfemur -25.4665 -0.392878 -18.6532
ltibia 55.4338
lfoot -18.1796 2.19089
ltoes -15.8915
4063
root 13.6932 17.9868 11.4219 1.49085 58.7993 -2.06458
lowerback 1.19357 0.431272 1.2566
upperback 1.63319 0.59017 2.98756
thorax 0.985727 0.303586 2.35804
lowerneck -5.71435 9.15979 -0.0489979
upperneck 35.9248 17.9958 -7.56297
head 14.0704 7.49129 -0.444945
rclavicle -1.00585e-013 -3.26007e-014
rhumerus -42.1013 -10.8381 -79.5706
rradius 34.2401
rwrist -9.33012
rhand -27.4844 12.6474
rfingers 7.12502
rthumb -0.887966 -17.3305
lclavicle -1.00585e-013 -3.26007e-014
lhumerus -31.9267 5.44324 86.3472
lradius 43.352
lwrist 8.77412
lhand -16.7457 24.5166
lfingers 7.12502
lthumb 9.48067 54.2833
rfemur -26.9256 3.6543 25.8245
rtibia 37.4564
rfoot -14.8478 -6.32168
rtoes 22.5954
lfemur -25.8358 -0.722831 -18.8733
ltibia 54.4528
lfoot -18.2089 2.99373
ltoes -14.5765
4064
root 13.7241 17.9868 11.4565 1.53174 59.0751 -2.15456
lowerback 1.244 0.460136 1.28754
upperback 1.63284 0.630538 2.95733
thorax 0.956427 0.32428 2.30884
lowerneck -5.61163 9.52465 -0.104367
upperneck 35.7773 18.5491 -7.58233
head 14.0137 7.73887 -0.370841
rclavicle -7.46436e-014 1.59028e-015
rhumerus -42.0393 -9.99408 -80.0419
rradius 34.722
rwrist -9.78664
rhand -27.4522 12.8656
rfingers 7.12502
rthumb -0.856799 -17.1125
lclavicle -7.46436e-014 1.59028e-015
lhumerus -31.9814 5.58347 86.3777
lradius 43.4341
lwrist 8.7873
lhand -17.0503 25.0965
lfingers 7.12502
lthumb 9.18681 54.8764
rfemur -27.0281 3.74299 25.8705
rtibia 37.7669
rfoot -15.0246 -6.56208
rtoes 21.3386
lfemur -26.2108 -1.14072 -18.699
ltibia 53.395
lfoot -18.3643 3.3725
ltoes -12.2179
4065
root 13.7505 18.0154 11.4902 1.7759 59.4246 -2.08179
lowerback 1.23397 0.4899 1.08841
upperback 1.65481 0.667973 2.94823
thorax 0.98128 0.34069 2.41147
lowerneck -5.54656 9.8005 -0.10258
upperneck 35.5289 18.9912 -7.75853
head 13.9401 7.92933 -0.380716
rclavicle -2.48481e-014 -1.90833e-014
rhumerus -41.9472 -9.46357 -80.374
rradius 35.218
rwrist -10.0024
rhand -27.2951 12.7968
rfingers 7.12502
rthumb -0.705057 -17.1818
lclavicle -2.48481e-014 -1.90833e-014
lhumerus -31.966 5.62779 86.4626
lradius 43.5688
lwrist 8.72226
lhand -17.3068 25.4392
lfingers 7.12502
lthumb 8.93929 55.2298
rfemur -27.5894 2.43892 26.4841
rtibia 38.0539
rfoot -13.3268 -8.88787
rtoes -6.43531
lfemur -26.5445 -1.61915 -18.5765
ltibia 52.2503
lfoot -18.7283 3.53245
ltoes -9.64551
4066
root 13.7784 18.0149 11.5229 1.73495 59.7543 -2.24961
lowerback 1.25617 0.581575 1.11566
upperback 1.70344 0.790142 2.93425
thorax 1.01512 0.402233 2.38147
lowerneck -5.28793 10.2513 -0.485941
upperneck 35.1387 19.5693 -7.54496
head 13.6694 8.19953 -0.187578
rclavicle -1.64991e-014 -2.3059e-014
rhumerus -41.9007 -9.29564 -80.5289
rradius 35.6879
rwrist -10.0493
rhand -27.0167 12.8908
rfingers 7.12502
rthumb -0.43617 -17.0885
lclavicle -1.64991e-014 -2.3059e-014
lhumerus -31.8938 5.79302 86.4719
lradius 43.5261
lwrist 8.371
lhand -17.1001 24.6794
lfingers 7.12502
lthumb 9.13877 54.4613
rfemur -27.6375 2.44712 26.5961
rtibia 38.2672
rfoot -13.645 -9.2919
rtoes -5.08519
lfemur -26.833 -2.0348 -18.3559
ltibia 51.1515
lfoot -19.0687 4.06705
ltoes -9.54035
4067
root 13.8119 18.0083 11.5557 1.38431 59.9131 -2.74568
lowerback 1.30482 0.700854 1.39068
upperback 1.69596 0.953303 2.93045
thorax 0.97929 0.487356 2.22165
lowerneck -5.2812 10.4664 -0.643221
upperneck 35.0659 19.9167 -7.51929
head 13.6364 8.34455 -0.106398
rclavicle -2.5842e-015 1.59028e-015
rhumerus -41.9401 -8.95201 -80.7263
rradius 36.0822
rwrist -9.90964
rhand -27.2873 13.2799
rfingers 7.12502
rthumb -0.697602 -16.6987
lclavicle -2.5842e-015 1.59028e-015
lhumerus -32.0326 5.90695 86.4537
lradius 43.65
lwrist 8.21661
lhand -17.023 24.3078
lfingers 7.12502
lthumb 9.21311 54.0865
rfemur -27.666 2.43418 26.9099
rtibia 38.4944
rfoot -14.0517 -9.52904
rtoes -4.79479
lfemur -27.0177 -2.27484 -17.9968
ltibia 50.0215
lfoot -19.0956 4.97977
ltoes -10.693
4068
root 13.8435 18.0048 11.5894 1.1246 60.1328 -3.01224
lowerback 1.42772 0.794003 1.48915
upperback 1.71638 1.08203 2.89009
thorax 0.93026 0.553139 2.12244
lowerneck -5.10444 10.5651 -0.183602
upperneck 34.8955 20.1696 -8.04409
head 13.6699 8.47152 -0.345491
rclavicle -1.07344e-014 1.03368e-014
rhumerus -41.9744 -8.68867 -80.9261
rradius 36.414
rwrist -9.67547
rhand -27.2589 13.1946
rfingers 7.12502
rthumb -0.670119 -16.7841
lclavicle -1.07344e-014 1.03368e-014
lhumerus -32.3859 5.50419 86.5217
lradius 44.3407
lwrist 8.91097
lhand -17.6018 25.2625
lfingers 7.12502
lthumb 8.65466 55.0651
rfemur -27.55 2.45451 27.0842
rtibia 38.6868
rfoot -14.377 -9.80845
rtoes -4.18948
lfemur -27.0524 -2.52631 -17.7652
ltibia 48.9382
lfoot -18.8514 5.67788
ltoes -9.62922
4069
root 13.8726 17.9958 11.6206 1.34734 60.4418 -2.79551
lowerback 1.47111 0.879495 1.32659
upperback 1.78244 1.19413 2.83042
thorax 0.968674 0.607498 2.15158
lowerneck -5.06515 10.7551 -0.0769238
upperneck 34.7433 20.5164 -8.2831
head 13.6664 8.62255 -0.402841
rclavicle 2.6339e-014 1.66979e-014
rhumerus -41.8668 -8.32452 -81.0639
rradius 36.7584
rwrist -9.606
rhand -27.087 12.8039
rfingers 7.12502
rthumb -0.504111 -17.1752
lclavicle 2.6339e-014 1.66979e-014
lhumerus -32.6003 5.02542 86.7115
lradius 45.0207
lwrist 9.71044
lhand -17.9763 26.1074
lfingers 7.12502
lthumb 8.29319 55.9246
rfemur -27.5701 2.35234 26.9928
rtibia 38.9173
rfoot -14.5834 -10.007
rtoes -4.0406
lfemur -27.1753 -2.66377 -17.885
ltibia 47.8755
lfoot -18.1053 6.68601
ltoes -12.1581
4070
root 13.9006 17.9869 11.6552 1.34159 60.7227 -2.74603
lowerback 1.58615 0.965974 1.19583
upperback 1.84919 1.31023 2.78423
thorax 0.967579 0.664275 2.17529
lowerneck -4.93203 11.0114 -0.174979
upperneck 34.5082 20.8901 -8.32305
head 13.5532 8.79463 -0.363877
rclavicle -3.54831e-014 6.36111e-015
rhumerus -41.8122 -7.90619 -81.2576
rradius 37.0141
rwrist -9.66223
rhand -27.3531 12.8545
rfingers 7.12502
rthumb -0.761079 -17.1239
lclavicle -3.54831e-014 6.36111e-015
lhumerus -32.7213 4.95209 86.7505
lradius 45.2224
lwrist 10.1003
lhand -18.2387 25.9296
lfingers 7.12502
lthumb 8.04 55.7567
rfemur -27.5273 2.28435 27.0116
rtibia 39.1719
rfoot -14.686 -10.3064
rtoes -4.1508
lfemur -27.1539 -2.75569 -17.8907
ltibia 46.8869
lfoot -17.2332 7.40266
ltoes -14.823
4071
root 13.9261 17.9749 11.6875 0.800978 61.0026 -3.21072
lowerback 1.78195 1.07139 1.38112
upperback 1.9192 1.45756 2.73255
thorax 0.931364 0.740766 2.01388
lowerneck -4.84925 11.1834 -0.0601977
upperneck 34.3871 21.156 -8.41622
head 13.528 8.9283 -0.383707
rclavicle 1.60022e-014 3.97569e-015
rhumerus -41.8618 -7.66236 -81.4759
rradius 37.3758
rwrist -9.81696
rhand -27.4844 12.8921
rfingers 7.12502
rthumb -0.887955 -17.0858
lclavicle 1.60022e-014 3.97569e-015
lhumerus -32.8286 5.29057 86.5865
lradius 45.1228
lwrist 9.82
lhand -18.2867 25.6334
lfingers 7.12502
lthumb 7.99364 55.4622
rfemur -27.3924 2.20985 27.3048
rtibia 39.46
rfoot -14.8366 -10.5176
rtoes -4.21973
lfemur -27.058 -2.67452 -17.6199
ltibia 46.043
lfoot -16.4014 7.50625
ltoes -16.271
4072
root 13.9479 17.9598 11.7119 0.357437 61.3187 -3.75723
lowerback 1.88203 1.12326 1.63353
upperback 1.92949 1.53294 2.67887
thorax 0.892083 0.781834 1.81444
lowerneck -4.7543 11.3645 0.176613
upperneck 34.2009 21.4615 -8.67524
head 13.5159 9.07741 -0.477153
rclavicle -3.37934e-015 -1.19271e-014
rhumerus -41.7799 -7.50453 -81.6372
rradius 37.6492
rwrist -9.78748
rhand -27.3498 12.6343
rfingers 7.12502
rthumb -0.757911 -17.3441
lclavicle -3.37934e-015 -1.19271e-014
lhumerus -32.7651 6.0978 86.2604
lradius 44.9137
lwrist 9.07808
lhand -18.6422 25.7238
lfingers 7.12502
lthumb 7.65047 55.5654
rfemur -27.487 2.04201 27.6321
rtibia 39.7705
rfoot -14.99 -10.7422
rtoes -4.39557
lfemur -27.1821 -2.65237 -17.2922
ltibia 45.3291
lfoot -15.5061 7.16144
ltoes -17.0975
